<?xml version="1.0" encoding="UTF-8" standalone="no"?>
<!DOCTYPE svg PUBLIC "-//W3C//DTD SVG 1.1//EN" "http://www.w3.org/Graphics/SVG/1.1/DTD/svg11.dtd">
<svg width="100%" height="100%" viewBox="0 0 800 800" version="1.1" xmlns="http://www.w3.org/2000/svg" xmlns:xlink="http://www.w3.org/1999/xlink" xml:space="preserve" xmlns:serif="http://www.serif.com/" style="fill-rule:evenodd;clip-rule:evenodd;stroke-linejoin:round;stroke-miterlimit:2;">
    <g>
        <g>
            <path d="M770.059,0.005L29.931,0.005C13.399,0.005 0,13.404 0,29.936L0,770.063C0,786.598 13.399,799.995 29.931,799.995L770.069,799.995C786.603,799.995 800,786.596 800,770.063L800,29.936C799.992,13.404 786.591,0.005 770.059,0.005ZM212.54,658.295C212.54,669.318 203.609,678.246 192.586,678.246L112.7,678.246C101.686,678.246 92.746,669.317 92.746,658.295L92.746,309.13C92.746,298.105 101.686,289.176 112.7,289.176L192.586,289.176C203.609,289.176 212.54,298.105 212.54,309.13L212.54,658.295ZM212.54,207.823C212.54,218.849 203.609,227.777 192.586,227.777L112.7,227.777C101.686,227.777 92.746,218.847 92.746,207.823L92.746,136.888C92.746,125.863 101.686,116.934 112.7,116.934L192.586,116.934C203.609,116.934 212.54,125.863 212.54,136.888L212.54,207.823ZM707.246,658.295C707.246,669.318 698.307,678.246 687.292,678.246L607.406,678.246C596.381,678.246 587.452,669.317 587.452,658.295L587.452,510.865C587.452,461.978 584.899,430.36 579.771,416.004C574.652,401.647 566.343,390.493 554.828,382.542C543.316,374.58 529.465,370.609 513.264,370.609C492.513,370.609 473.896,376.295 457.413,387.659C440.932,399.033 429.637,414.087 423.521,432.844C417.416,451.601 414.362,486.281 414.362,536.863L414.362,658.295C414.362,669.318 405.424,678.246 394.408,678.246L314.523,678.246C303.509,678.246 294.569,669.317 294.569,658.295L294.569,309.13C294.569,298.105 303.507,289.176 314.523,289.176L385.879,289.176C396.904,289.176 405.833,298.105 405.833,309.13L405.833,335.729C405.833,346.754 411.232,348.529 418.643,340.378C455.916,299.422 501.382,278.94 555.048,278.94C581.477,278.94 605.631,283.699 627.52,293.217C649.4,302.735 665.96,314.886 677.186,329.663C688.41,344.437 696.232,361.209 700.632,379.966C705.032,398.722 707.247,425.58 707.247,460.541L707.247,658.295L707.246,658.295Z" style="fill:white;fill-rule:nonzero;"/>
        </g>
    </g>
</svg>
